<?xml version="1.0" encoding="UTF-8" standalone="no"?>
<!-- Created with Inkscape (http://www.inkscape.org/) -->

<svg
   xmlns:dc="http://purl.org/dc/elements/1.1/"
   xmlns:cc="http://creativecommons.org/ns#"
   xmlns:rdf="http://www.w3.org/1999/02/22-rdf-syntax-ns#"
   xmlns:svg="http://www.w3.org/2000/svg"
   xmlns="http://www.w3.org/2000/svg"
   xmlns:sodipodi="http://sodipodi.sourceforge.net/DTD/sodipodi-0.dtd"
   xmlns:inkscape="http://www.inkscape.org/namespaces/inkscape"
   width="148mm"
   height="148mm"
   viewBox="0 0 148 148"
   version="1.1"
   id="svg8"
   inkscape:version="0.92.4 (33fec40, 2019-01-16)"
   sodipodi:docname="logo.svg">
  <defs
     id="defs2" />
  <sodipodi:namedview
     id="base"
     pagecolor="#ffffff"
     bordercolor="#666666"
     borderopacity="1.0"
     inkscape:pageopacity="0.0"
     inkscape:pageshadow="2"
     inkscape:zoom="0.7"
     inkscape:cx="172.28565"
     inkscape:cy="210.60395"
     inkscape:document-units="mm"
     inkscape:current-layer="layer1"
     showgrid="false"
     inkscape:window-width="1855"
     inkscape:window-height="1025"
     inkscape:window-x="65"
     inkscape:window-y="27"
     inkscape:window-maximized="1" />
  <metadata
     id="metadata5">
    <rdf:RDF>
      <cc:Work
         rdf:about="">
        <dc:format>image/svg+xml</dc:format>
        <dc:type
           rdf:resource="http://purl.org/dc/dcmitype/StillImage" />
        <dc:title />
      </cc:Work>
    </rdf:RDF>
  </metadata>
  <g
     inkscape:label="Layer 1"
     inkscape:groupmode="layer"
     id="layer1"
     transform="translate(0,-149)">
    <path
       style="fill:#c0e2df;stroke-width:0.26458332;fill-opacity:1"
       d="M 74.083185,149.21119 A 73.705359,73.705359 0 0 0 0.37812244,222.91677 73.705359,73.705359 0 0 0 74.083185,296.62183 73.705359,73.705359 0 0 0 147.78876,222.91677 73.705359,73.705359 0 0 0 74.083185,149.21119 Z m -21.865849,14.83734 c 1.680057,0 2.972829,0.34876 3.878316,1.04697 0.905486,0.6982 1.358574,1.68568 1.358574,2.96209 0,0.61093 -0.163642,1.24351 -0.490926,1.89807 -0.327285,0.65457 -0.780373,1.26567 -1.358575,1.83297 -0.392739,0.39274 -0.757862,0.69292 -1.096057,0.9002 -0.338194,0.19637 -0.622012,0.29456 -0.851109,0.29456 -0.283647,0 -0.425297,-0.21837 -0.425297,-0.65474 0,0.0109 0.02148,-0.15837 0.06511,-0.50747 0.06546,-0.51274 0.09819,-0.97094 0.09819,-1.37459 0,-0.56729 -0.08693,-1.13441 -0.261483,-1.70171 -0.163642,-0.5782 -0.382003,-1.05839 -0.65474,-1.44022 -0.261827,-0.39274 -0.512916,-0.58911 -0.752925,-0.58911 -0.120005,0 -0.25603,0.0931 -0.40876,0.27854 -0.294556,0.30546 -0.523656,0.68695 -0.687298,1.14515 -0.163642,0.44728 -0.245462,0.86764 -0.245462,1.26038 0,0.49093 0.07057,0.94913 0.212389,1.3746 0.141825,0.41456 0.387287,0.84003 0.736389,1.27641 0.349104,0.43637 0.812929,0.91605 1.391131,1.4397 0.916395,0.82912 1.620054,1.55477 2.110981,2.17661 0.501835,0.62184 0.867476,1.24368 1.096573,1.86552 0.2291,0.61093 0.343649,1.27624 0.343649,1.99626 0,1.2655 -0.332909,2.48771 -0.998389,3.66593 -0.665477,1.17822 -1.549143,2.13245 -2.651001,2.86339 -1.090946,0.72003 -2.220076,1.08004 -3.387389,1.08004 -1.112766,0 -2.198431,-0.23984 -3.25665,-0.71986 -1.058217,-0.48001 -2.050807,-1.16731 -2.97811,-2.06189 -0.960036,-0.94912 -1.440223,-1.78932 -1.440223,-2.52026 0,-0.44728 0.212733,-0.88349 0.638204,-1.30896 0.436378,-0.43638 0.971286,-0.80713 1.604037,-1.11259 0.643657,-0.30547 1.183677,-0.45837 1.620054,-0.45837 0.250918,0 0.463653,0.0654 0.638204,0.19637 0.174551,0.12 0.326941,0.33274 0.457854,0.6382 0.141822,0.29456 0.278363,0.69804 0.409278,1.21078 0.20728,0.73093 0.398024,1.27658 0.572575,1.63659 0.174551,0.3491 0.420012,0.69838 0.736388,1.04748 0.327284,0.32729 0.670933,0.49093 1.030946,0.49093 0.436378,0 0.780026,-0.16927 1.030944,-0.50746 0.250918,-0.34911 0.376722,-0.82367 0.376722,-1.42369 0,-0.93821 -0.332912,-1.8766 -0.99839,-2.81481 -0.196371,-0.31638 -0.414731,-0.59457 -0.65474,-0.83458 -0.229098,-0.25091 -0.736389,-0.72548 -1.52187,-1.42368 -0.240009,-0.19637 -0.621496,-0.54002 -1.145151,-1.03095 -0.938213,-0.94912 -1.598409,-1.78881 -1.98024,-2.51974 -0.381831,-0.74184 -0.572574,-1.53295 -0.572574,-2.37298 0,-1.2655 0.381487,-2.45446 1.145148,-3.56723 0.774573,-1.11276 1.805517,-1.99643 3.092834,-2.651 1.298228,-0.65457 2.689185,-0.98185 4.172873,-0.98185 z m 40.305032,0.0326 c 0.545473,0 0.943843,0.13654 1.19476,0.40927 0.261827,0.26183 0.39274,0.70366 0.39274,1.3255 0,0.77458 -0.136541,1.51097 -0.409276,2.20917 -0.261829,0.6873 -0.616215,1.24879 -1.063501,1.68517 -0.447288,0.42547 -0.905486,0.6382 -1.374595,0.6382 h -0.04909 c -1.02549,-0.0327 -1.538409,-0.64894 -1.538409,-1.84898 0,-0.60002 0.147278,-1.29294 0.441836,-2.07842 0.305464,-0.7964 0.649113,-1.38551 1.030944,-1.76734 0.196371,-0.20728 0.392739,-0.35456 0.58911,-0.44183 0.20728,-0.0873 0.469109,-0.13074 0.785481,-0.13074 z m 11.160562,0.39274 c 0.43638,0 0.76929,0.0982 0.99839,0.29455 0.2291,0.19637 0.34365,0.48019 0.34365,0.85111 0,0.25092 -0.16364,0.76332 -0.49093,1.53789 -0.55638,1.28732 -0.97111,2.49316 -1.24385,3.61684 0.18546,0.0218 0.36547,0.0545 0.54002,0.0982 0.65457,0.0982 1.08566,0.21274 1.29294,0.34365 0.20728,0.12001 0.31058,0.34348 0.31058,0.67076 0,0.5782 -0.14728,1.11259 -0.44184,1.60352 -0.29455,0.49093 -0.68166,0.85094 -1.16168,1.08004 -0.36001,0.16364 -0.9435,0.27308 -1.7508,0.32763 -0.14183,0.42547 -0.30036,1.00895 -0.47491,1.75079 -0.0982,0.65457 -0.2071,1.56023 -0.32711,2.71663 -0.0655,0.42547 -0.0982,0.82332 -0.0982,1.19425 0,1.72369 0.83458,2.58589 2.50373,2.58589 h 0.0982 0.0491 c 0.19637,0 0.29456,0.0327 0.29455,0.0982 0,0.17455 -0.18563,0.46911 -0.55655,0.88367 -0.37092,0.41456 -0.78003,0.77968 -1.22732,1.09605 -0.48002,0.32729 -1.00367,0.58912 -1.57096,0.78549 -0.5673,0.19637 -1.079698,0.29455 -1.537896,0.29455 -1.145495,0 -2.078254,-0.38711 -2.798278,-1.16168 -0.709118,-0.77458 -1.064019,-1.79989 -1.064019,-3.0763 0,-0.54547 0.09307,-1.26039 0.278537,-2.14406 0.196369,-0.88366 0.496036,-2.067 0.899687,-3.55068 0.06546,-0.26183 0.13654,-0.53491 0.212905,-0.81856 0.07637,-0.29455 0.119832,-0.46893 0.130741,-0.52348 -0.436378,-0.0109 -0.747297,-0.10347 -0.93276,-0.27802 -0.185459,-0.17455 -0.278019,-0.45837 -0.278019,-0.85111 0,-0.6873 0.261829,-1.33624 0.785482,-1.94717 0.534564,-0.61093 1.156404,-0.99293 1.865519,-1.14567 l 0.06563,-0.19637 c 0.720024,-2.02916 1.341866,-3.45847 1.865521,-4.28759 0.25092,-0.39274 0.59967,-0.7415 1.04696,-1.04696 0.84003,-0.53457 1.63115,-0.80202 2.37299,-0.80202 z m -42.317832,6.07094 c 0.501836,0 0.97077,0.0818 1.40715,0.24547 0.447286,0.15273 0.796562,0.38183 1.04748,0.68729 0.2291,0.2291 0.398367,0.53491 0.507463,0.91674 0.120004,0.37093 0.196199,0.94367 0.228925,1.71824 0.04364,0.76367 0.06563,1.82171 0.06563,3.17449 v 0.83457 1.57097 1.84898 h 0.06511 c 0.207279,-0.46911 0.376549,-0.82912 0.507462,-1.08004 0.349105,-0.6873 1.025663,-2.13808 2.029336,-4.3527 0.20728,-0.46911 0.600019,-1.34204 1.178221,-2.61845 l 0.343649,-0.70331 0.261483,-0.50747 c 0.272737,-0.56729 0.496726,-0.94367 0.671277,-1.12913 0.185459,-0.18546 0.430924,-0.27802 0.736388,-0.27802 0.894577,0 1.341519,1.00896 1.341519,3.02721 0,0.58911 -0.04346,1.0964 -0.130741,1.52187 -0.08728,0.42547 -0.234553,0.83457 -0.441833,1.22731 -0.250917,0.52366 -0.588939,1.12351 -1.014407,1.7999 -0.425471,0.66547 -0.911286,1.37476 -1.456759,2.12751 -0.534564,0.74185 -1.10731,1.48897 -1.718241,2.24173 -1.090948,1.3855 -2.012453,2.40008 -2.765205,3.04374 -0.752756,0.64366 -1.385848,0.96583 -1.898595,0.96583 -0.949124,0 -1.625166,-0.57837 -2.028814,-1.73478 -0.283647,-0.73093 -0.545476,-1.6146 -0.785482,-2.651 -0.2291,-1.0364 -0.409107,-2.08371 -0.54002,-3.14193 -0.130913,-1.06912 -0.196371,-2.10007 -0.196371,-3.09283 0,-1.37459 0.119661,-2.53082 0.359669,-3.46904 0.250918,-0.94912 0.589455,-1.57096 1.014924,-1.86552 0.381833,-0.21819 0.785309,-0.32763 1.21078,-0.32763 z m 21.068999,0.16382 c 1.025488,0 1.827334,0.32728 2.405536,0.98185 0.589113,0.64366 0.883668,1.53295 0.883668,2.66754 0,0.88366 -0.234727,1.80517 -0.703834,2.7652 -0.458197,0.96004 -1.139867,1.88206 -2.045353,2.76573 -0.741844,0.74184 -1.472605,1.32022 -2.192631,1.73478 -0.709115,0.41456 -1.330955,0.62166 -1.865519,0.62166 -0.240009,0 -0.485471,-0.0598 -0.736389,-0.17983 0.120005,0.65457 0.545473,0.98185 1.276409,0.98185 0.818208,0 1.881883,-0.48019 3.191018,-1.44022 0.763664,-0.55638 1.276064,-0.83458 1.53789,-0.83458 0.327284,0 0.633095,0.0874 0.916742,0.262 0.283646,0.17456 0.425296,0.35456 0.425296,0.54002 0,0.19637 -0.158014,0.45257 -0.47439,0.76895 -0.578202,0.5782 -1.244023,1.14532 -1.996776,1.7017 -0.752755,0.54548 -1.477888,1.00367 -2.176094,1.37459 -0.698207,0.36002 -1.396757,0.64946 -2.094963,0.86765 -0.698207,0.20728 -1.320046,0.31058 -1.865519,0.31058 -1.363684,0 -2.45446,-0.38712 -3.272668,-1.16169 -0.818211,-0.78548 -1.227318,-1.82716 -1.227318,-3.12539 0,-0.99276 0.212736,-2.11115 0.638204,-3.35483 0.43638,-1.25459 1.019863,-2.42719 1.750798,-3.51813 0.861849,-1.27641 1.920412,-2.34008 3.175,-3.19102 1.549146,-1.0255 3.03266,-1.53841 4.450893,-1.53841 z m 9.057327,0.3762 c 0.632749,0 1.14004,0.28945 1.52187,0.86765 0.392743,0.5782 0.589111,1.33607 0.589111,2.27428 0,1.3855 -0.20148,3.01119 -0.605131,4.8767 -0.39274,1.85461 -0.949124,3.78559 -1.669148,5.79293 -0.283646,0.8073 -0.63292,1.35295 -1.04748,1.63659 -0.283647,0.17456 -0.616559,0.26149 -0.998389,0.26149 h -0.03256 c -0.490927,-0.0327 -0.938387,-0.2562 -1.342036,-0.67076 -0.403651,-0.43638 -0.692581,-0.90532 -0.867132,-1.40715 -0.163642,-0.51275 -0.245462,-1.17294 -0.245462,-1.98024 0,-1.80006 0.332909,-3.82922 0.998389,-6.08749 0.676387,-2.26917 1.439876,-3.91121 2.290816,-4.92579 0.338193,-0.42547 0.807127,-0.63821 1.407149,-0.63821 z m -10.431922,2.0128 c -0.349102,0 -0.883494,0.76912 -1.603518,2.30735 -0.425471,0.92731 -0.774745,1.85496 -1.047483,2.78226 -0.261826,0.9164 -0.39274,1.70699 -0.39274,2.37247 0,0.2291 0.04347,0.55638 0.130742,0.98185 0.501835,-0.33819 0.883838,-0.67621 1.145667,-1.01441 0.578201,-0.70912 1.025662,-1.5217 1.342035,-2.43809 0.250918,-0.60002 0.447289,-1.27096 0.589111,-2.0128 0.141824,-0.74184 0.212391,-1.43477 0.212391,-2.07843 0,-0.60002 -0.125288,-0.9002 -0.376205,-0.9002 z m -14.294218,38.96351 c 1.625513,0 2.438096,0.19075 2.438096,0.57258 0,0.43638 -0.365123,0.6711 -1.096058,0.70383 -0.883669,0.0546 -1.707504,0.30512 -2.471166,0.75241 -0.763664,0.44729 -1.445334,1.05839 -2.045353,1.83296 -0.589114,0.77458 -1.052936,1.6475 -1.391132,2.61845 -0.327284,0.97094 -0.490924,1.99626 -0.490926,3.0763 0,1.18913 0.278193,2.14899 0.834575,2.87992 0.556384,0.72003 1.282036,1.08004 2.17661,1.08004 0.82912,0 1.554256,-0.42547 2.176095,-1.27641 0.62184,-0.85094 0.93276,-1.84353 0.93276,-2.97811 0,-0.92731 -0.196369,-1.79461 -0.589111,-2.60191 -0.381831,-0.81821 -0.943324,-1.5055 -1.685168,-2.06189 -0.316376,-0.25092 -0.474906,-0.43092 -0.474906,-0.54002 0,-0.15273 0.223988,-0.38745 0.671277,-0.70383 0.501835,-0.33819 1.063328,-0.6215 1.685168,-0.85059 0.62184,-0.2291 1.145495,-0.34365 1.570964,-0.34365 0.490926,0 0.954751,0.13091 1.391128,0.39274 0.447289,0.25092 0.840031,0.61604 1.178224,1.09605 0.338193,0.46911 0.594392,1.01476 0.768946,1.6366 0.185459,0.61093 0.278534,1.2655 0.278534,1.9637 0,1.15641 -0.21836,2.3019 -0.65474,3.43649 -0.436377,1.12367 -1.009126,2.03444 -1.718241,2.73264 -0.916395,0.88367 -2.023534,1.60932 -3.321762,2.17662 -1.287317,0.55638 -2.514632,0.83457 -3.681944,0.83457 -1.134586,0 -2.263714,-0.19637 -3.387392,-0.58911 -1.112766,-0.39274 -1.996432,-0.91077 -2.651,-1.55443 -0.872758,-0.87275 -1.309482,-2.11132 -1.309482,-3.71502 0,-1.26549 0.31092,-2.53065 0.93276,-3.79615 0.62184,-1.2655 1.462042,-2.41099 2.520262,-3.43648 1.069126,-1.0364 2.241722,-1.8495 3.51813,-2.43861 1.287317,-0.60002 2.585717,-0.89969 3.894852,-0.89969 z m 19.669601,1.01441 c 1.363684,0 2.400255,0.23473 3.10937,0.70383 0.720026,0.46911 1.080037,1.17277 1.080037,2.11099 0,0.78548 -0.31092,1.75608 -0.932759,2.91248 0.447288,0.0327 0.774573,0.1749 0.981853,0.42581 0.207279,0.24001 0.311091,0.6215 0.311091,1.14515 0,0.85094 -0.174895,2.04042 -0.523999,3.56774 -0.349102,1.51642 -0.77457,2.91811 -1.276406,4.20543 -0.61093,1.62551 -1.483344,3.03846 -2.61793,4.2385 -0.861846,0.90549 -1.931146,1.67972 -3.207554,2.32337 -1.276408,0.65457 -2.37281,0.98186 -3.289205,0.98186 -0.763664,0 -1.445334,-0.30529 -2.045353,-0.91623 -0.600022,-0.61093 -0.900206,-1.29822 -0.900206,-2.06189 0,-0.51274 0.130916,-1.04713 0.392743,-1.60351 0.261826,-0.54548 0.599847,-1.01493 1.014407,-1.40767 0.85094,-0.86185 2.100246,-1.68006 3.747577,-2.45463 0.305464,-0.15273 0.540189,-0.22893 0.703831,-0.22893 0.06546,0 0.125288,0.0271 0.179835,0.0816 0.05455,0.0546 0.08165,0.11489 0.08165,0.18035 0,0.0764 -0.06546,0.22365 -0.196368,0.44184 -0.327284,0.55638 -0.616215,1.26515 -0.867132,2.127 -0.250918,0.87275 -0.376203,1.62551 -0.376203,2.25826 0,0.74184 0.114548,1.11311 0.343646,1.11311 0.120004,0 0.267282,-0.13654 0.441835,-0.40928 0.18546,-0.26183 0.349102,-0.56201 0.490927,-0.9002 0.927304,-2.35645 1.521526,-4.538 1.783352,-6.54534 0.03273,-0.29456 0.06546,-0.73639 0.09819,-1.3255 l -0.441833,0.32711 c -0.03273,0.0327 -0.08693,0.0762 -0.163299,0.13074 -0.06546,0.0545 -0.152902,0.12563 -0.261998,0.21291 -1.887339,1.47278 -3.370852,2.50935 -4.450892,3.10937 -1.069126,0.60002 -2.001885,0.89969 -2.798278,0.89969 -0.883666,0 -1.598581,-0.32166 -2.144054,-0.96532 -0.534564,-0.64366 -0.801502,-1.50533 -0.801502,-2.58537 0,-1.34186 0.376377,-2.72771 1.12913,-4.15685 0.763662,-1.44005 1.766988,-2.75993 3.010667,-3.95997 1.243682,-1.20004 2.607538,-2.1599 4.091223,-2.87993 1.483688,-0.73093 2.918111,-1.09657 4.303615,-1.09657 z m -1.046964,2.07843 c -0.425469,0 -1.080037,0.45819 -1.963706,1.37459 -0.556382,0.58911 -1.080037,1.28714 -1.570963,2.09445 -0.490927,0.8073 -0.87293,1.61477 -1.145665,2.42207 -0.272738,0.8073 -0.409278,1.53244 -0.409278,2.1761 0,0.63274 0.158533,0.94929 0.474905,0.94929 0.305467,0 1.074584,-0.51292 2.307355,-1.53841 0.550399,-0.47485 1.444715,-1.15929 2.678388,-2.05052 l -0.02739,-0.0274 c -0.06546,0.0218 -0.152906,0.0325 -0.262001,0.0325 -0.20728,0.0218 -0.469107,0.0326 -0.785482,0.0326 -0.556382,0 -0.834573,-0.1033 -0.834573,-0.31058 0,-0.10909 0.07108,-0.24001 0.212905,-0.39274 0.41456,-0.46911 0.768945,-1.08584 1.063501,-1.8495 0.305467,-0.76366 0.474736,-1.45607 0.507463,-2.07791 0,-0.15273 0.01074,-0.28927 0.03256,-0.40928 0.0109,-0.0436 0.01654,-0.082 0.01654,-0.11472 0.0109,-0.0327 0.01601,-0.0598 0.01601,-0.0816 0,-0.15274 -0.103296,-0.22893 -0.310575,-0.22893 z m -29.995585,30.9283 c 0.338193,0 0.506944,0.14728 0.506944,0.44183 0,0.64366 -0.605475,1.53807 -1.816425,2.68356 -0.927304,0.89458 -1.843701,1.57625 -2.749187,2.04536 -0.905484,0.4691 -1.772788,0.70383 -2.601908,0.70383 -0.469106,0 -0.703315,-0.16927 -0.703315,-0.50746 0,-0.13092 0.04347,-0.24547 0.130741,-0.34365 0.08728,-0.0982 0.256545,-0.23984 0.507463,-0.4253 0.109093,-0.0764 0.354558,-0.27836 0.736388,-0.60565 0.490927,-0.52365 1.047309,-1.26004 1.669148,-2.20916 0.294556,-0.43638 0.474562,-0.69258 0.54002,-0.76895 0.06546,-0.0764 0.185116,-0.14745 0.359667,-0.21291 0.469109,-0.16364 1.090948,-0.33802 1.865519,-0.52348 0.774573,-0.18546 1.293116,-0.27802 1.554945,-0.27802 z m 30.126326,1.7508 c 0.589111,0 1.123503,0.18563 1.60352,0.55656 0.480015,0.36001 0.851281,0.8673 1.11311,1.52187 0.261827,0.65456 0.39274,1.3797 0.39274,2.17609 0,1.71279 -0.338537,3.38756 -1.014923,5.02398 -0.66548,1.63642 -1.59824,3.05448 -2.798281,4.25452 -0.56729,0.57821 -1.112419,1.03129 -1.636075,1.35858 -0.523655,0.32728 -0.981853,0.49092 -1.374592,0.49092 -0.381834,0 -0.573093,-0.14728 -0.573093,-0.44183 0,-0.16364 0.142169,-0.47456 0.425815,-0.93276 0.381831,-0.60002 0.828773,-1.50568 1.34152,-2.71663 0.04364,-0.12001 0.09273,-0.24529 0.147277,-0.3762 0.05455,-0.14183 0.120005,-0.33309 0.196371,-0.5731 0.436378,-1.23277 0.802019,-2.51991 1.096574,-3.86178 0.294555,-1.35277 0.441833,-2.38934 0.441833,-3.10937 0,-0.19637 -0.05472,-0.29455 -0.163814,-0.29455 -0.174551,0 -0.479846,0.39274 -0.916223,1.17822 -0.43638,0.77457 -0.802018,1.56568 -1.096574,2.37298 -0.632751,1.77825 -1.123675,3.25665 -1.472779,4.43487 -0.338193,1.16732 -0.572402,2.14917 -0.703315,2.94556 -0.130914,0.79639 -0.196372,1.60897 -0.196372,2.43809 0,0.70912 0.07619,1.22715 0.228926,1.55443 0.163642,0.32728 0.419843,0.49093 0.768948,0.49093 0.600019,0 1.270952,-0.26183 2.012796,-0.78549 0.741844,-0.53456 1.412775,-1.23259 2.012797,-2.09444 0.469106,-0.64366 0.834747,-0.96532 1.096573,-0.96532 0.338193,0 0.507463,0.26694 0.507463,0.80151 0,1.16731 -0.365641,2.30769 -1.096573,3.42046 -0.730936,1.11276 -1.674432,2.01791 -2.830836,2.71611 -1.145495,0.6873 -2.318607,1.03095 -3.518648,1.03095 -1.47278,0 -2.672474,-0.46331 -3.599781,-1.39062 -0.927304,-0.9273 -1.391129,-2.13825 -1.391129,-3.63285 0,-1.22186 0.261827,-2.65117 0.785482,-4.28759 0.523655,-1.64733 1.221687,-3.30012 2.094444,-4.95836 0.883669,-1.66915 1.849157,-3.18028 2.896466,-4.53305 1.047308,-1.35278 2.083882,-2.38883 3.10937,-3.10886 0.632751,-0.46911 1.33641,-0.70383 2.110983,-0.70383 z m 10.047449,0.0326 c 0.545473,0 0.94384,0.13654 1.194758,0.40927 0.261829,0.26183 0.392742,0.70366 0.392742,1.3255 0,0.77457 -0.136541,1.51097 -0.409279,2.20917 -0.261826,0.6873 -0.616212,1.24931 -1.063501,1.68569 -0.447288,0.42546 -0.905486,0.6382 -1.374592,0.6382 h -0.04909 c -1.025488,-0.0327 -1.538407,-0.64946 -1.538407,-1.8495 0,-0.60002 0.147278,-1.29243 0.441833,-2.07791 0.305467,-0.79639 0.649113,-1.3855 1.030946,-1.76733 0.196369,-0.20728 0.39274,-0.35456 0.589111,-0.44184 0.20728,-0.0873 0.469106,-0.13125 0.785482,-0.13125 z m -67.24034,0.26199 c 0.458198,0 1.085665,0.0164 1.882055,0.0491 0.796391,0.0218 1.903532,0.0817 3.321762,0.17983 l 0.45837,0.0331 0.441833,0.0491 c 1.200041,0.0654 1.990635,0.14165 2.372465,0.22892 0.381831,0.0873 0.709115,0.25655 0.981853,0.50747 0.218189,0.25091 0.327628,0.53984 0.327628,0.86713 0,0.3491 -0.07108,0.70911 -0.212907,1.08003 -0.130913,0.36002 -0.294555,0.62747 -0.490927,0.80202 -0.272735,0.30547 -1.041855,0.56167 -2.307351,0.76895 -0.109096,0 -0.223645,0.0107 -0.343649,0.0325 l -0.327112,0.0656 c 0.261829,0.26183 0.392742,0.55076 0.392742,0.86713 0,0.30547 -0.152906,0.96566 -0.45837,1.98024 -0.09819,0.25092 -0.332912,1.07476 -0.703834,2.47117 l -0.245464,0.98185 -0.163296,0.67076 -0.163814,0.70384 c -0.05455,0.24 -0.10364,0.44711 -0.147278,0.62166 -0.04364,0.16365 -0.08199,0.31092 -0.114723,0.44184 -0.02183,0.12 -0.04892,0.24529 -0.08165,0.3762 -0.785481,3.36012 -1.418058,5.46036 -1.898076,6.30039 -0.218188,0.37092 -0.545472,0.70384 -0.981852,0.99839 -1.374593,0.89458 -2.45463,1.34152 -3.240112,1.34152 -0.545473,0 -1.009298,-0.19637 -1.391129,-0.58911 -0.370922,-0.40365 -0.556556,-0.89969 -0.556556,-1.4888 0,-1.06913 0.469453,-3.04408 1.407665,-5.92418 0.283647,-0.9164 0.539848,-1.71262 0.768946,-2.389 0.240009,-0.67639 0.523827,-1.43988 0.851111,-2.29082 0.338194,-0.85094 0.714571,-1.7566 1.129131,-2.71663 0.425468,-0.96004 0.725136,-1.63659 0.899686,-2.02934 -1.44005,0.20728 -2.825379,0.3111 -4.156336,0.3111 -1.341864,0 -2.012797,-0.46894 -2.012797,-1.40715 0,-0.60002 0.436208,-1.36403 1.308965,-2.29133 0.589111,-0.60003 1.134756,-1.01424 1.636594,-1.24334 0.501835,-0.24001 1.10731,-0.36019 1.816425,-0.36019 z m 93.455799,0.13075 c 0.43638,0 0.76929,0.0982 0.99839,0.29455 0.22909,0.19637 0.34365,0.48019 0.34365,0.85111 0,0.25092 -0.16365,0.76384 -0.49093,1.53841 -0.55639,1.28732 -0.97112,2.49264 -1.24386,3.61632 0.18547,0.0218 0.36547,0.0546 0.54002,0.0982 0.65457,0.0982 1.08567,0.21274 1.29295,0.34365 0.20728,0.12 0.31109,0.34348 0.31109,0.67076 0,0.5782 -0.14728,1.11311 -0.44183,1.60404 -0.29456,0.49092 -0.68219,0.85094 -1.16221,1.08003 -0.36001,0.16365 -0.94349,0.27257 -1.75079,0.32712 -0.14183,0.42546 -0.29984,1.00895 -0.47439,1.75079 -0.0982,0.65457 -0.20763,1.56023 -0.32763,2.71663 -0.0655,0.42547 -0.0982,0.82384 -0.0982,1.19476 0,1.7237 0.83458,2.58537 2.50373,2.58537 h 0.0982 0.0491 c 0.19638,0 0.29456,0.0327 0.29456,0.0982 0,0.17455 -0.18512,0.46911 -0.55604,0.88367 -0.37092,0.41456 -0.78002,0.7802 -1.22731,1.09657 -0.48002,0.32728 -1.00368,0.58911 -1.57097,0.78548 -0.56729,0.19637 -1.0802,0.29456 -1.53841,0.29456 -1.14549,0 -2.07825,-0.38763 -2.79827,-1.1622 -0.70912,-0.77458 -1.0635,-1.7999 -1.0635,-3.0763 0,-0.54548 0.0926,-1.25988 0.27801,-2.14354 0.19638,-0.88367 0.49656,-2.06752 0.90021,-3.5512 0.0655,-0.26183 0.13602,-0.5344 0.21239,-0.81804 0.0764,-0.29456 0.12035,-0.46946 0.13126,-0.524 -0.43638,-0.0109 -0.7473,-0.10347 -0.93276,-0.27802 -0.18546,-0.17455 -0.27854,-0.45837 -0.27854,-0.85111 0,-0.6873 0.26183,-1.33624 0.78548,-1.94717 0.53457,-0.61093 1.15641,-0.99293 1.86552,-1.14567 l 0.0656,-0.19637 c 0.72003,-2.02916 1.34187,-3.45795 1.86552,-4.28707 0.25092,-0.39275 0.60019,-0.74202 1.04748,-1.04749 0.84003,-0.53456 1.63062,-0.80201 2.37247,-0.80201 z m -71.642144,5.69474 c 1.625512,0 2.438095,0.19126 2.438095,0.57309 0,0.43638 -0.36564,0.67059 -1.096573,0.70332 -0.883669,0.0545 -1.706989,0.30563 -2.470653,0.75292 -0.763661,0.44729 -1.445847,1.05839 -2.045869,1.83297 -0.589111,0.77457 -1.05242,1.64698 -1.390613,2.61792 -0.327284,0.97095 -0.490927,1.99678 -0.490927,3.07682 0,1.18913 0.278194,2.14899 0.834576,2.87993 0.556384,0.72002 1.281517,1.08003 2.176094,1.08003 0.82912,0 1.554771,-0.42547 2.176611,-1.2764 0.62184,-0.85094 0.932759,-1.84353 0.932759,-2.97812 0,-0.9273 -0.196368,-1.79461 -0.58911,-2.6019 -0.381831,-0.81822 -0.94384,-1.50551 -1.685684,-2.06189 -0.316376,-0.25092 -0.47439,-0.43093 -0.47439,-0.54002 0,-0.15274 0.223472,-0.38746 0.670758,-0.70384 0.501838,-0.33819 1.063847,-0.62201 1.685687,-0.85111 0.621839,-0.2291 1.145495,-0.34365 1.570963,-0.34365 0.490927,0 0.954752,0.13092 1.391129,0.39275 0.447289,0.25091 0.840028,0.61655 1.178224,1.09657 0.338193,0.46911 0.594392,1.01475 0.768945,1.63659 0.18546,0.61093 0.278019,1.2655 0.278019,1.96371 0,1.1564 -0.217844,2.30189 -0.654224,3.43648 -0.436378,1.12367 -1.009126,2.03444 -1.718241,2.73265 -0.916395,0.88367 -2.024052,1.60932 -3.322278,2.17661 -1.287317,0.55638 -2.514632,0.83457 -3.681947,0.83457 -1.134584,0 -2.263714,-0.19637 -3.387389,-0.58911 -1.112766,-0.39274 -1.996432,-0.91128 -2.651001,-1.55494 -0.872757,-0.87276 -1.308965,-2.11081 -1.308965,-3.7145 0,-1.2655 0.31092,-2.53117 0.93276,-3.79667 0.621839,-1.2655 1.462042,-2.41099 2.520259,-3.43648 1.069128,-1.0364 2.241725,-1.84899 3.518133,-2.4381 1.287317,-0.60002 2.585717,-0.9002 3.894852,-0.9002 z m 57.831094,0.60565 c 0.69821,0 1.35278,0.16364 1.96371,0.49092 0.61093,0.32729 1.09623,0.76349 1.45624,1.30897 0.36001,0.53456 0.54002,1.11856 0.54002,1.75131 0,0.62184 -0.19637,1.26515 -0.58911,1.93063 -0.39274,0.66548 -0.8893,1.22186 -1.48932,1.66915 -0.58911,0.43638 -1.1506,0.65474 -1.68517,0.65474 -0.30546,0 -0.57292,-0.0654 -0.80201,-0.19637 -0.21819,-0.13091 -0.32712,-0.27256 -0.32712,-0.42529 0,-0.15274 0.0435,-0.37673 0.13075,-0.67128 0.24,-0.93822 0.36018,-1.75643 0.36018,-2.45463 0,-0.6873 -0.20762,-1.33624 -0.62218,-1.94717 -0.53457,0.37092 -0.88332,0.66548 -1.04697,0.88367 -0.41456,0.48001 -0.73673,1.02566 -0.96583,1.63659 -0.25092,0.62184 -0.37621,1.21095 -0.37621,1.76733 0,0.39274 0.0875,0.70877 0.262,0.94878 0.18547,0.2291 0.48002,0.42547 0.88367,0.58911 0.41456,0.16365 1.0364,0.34365 1.86552,0.54002 1.3855,0.33819 2.36173,0.66548 2.92902,0.98185 0.13091,0.0764 0.33291,0.2349 0.60565,0.47491 0.41456,0.44729 0.62166,1.02515 0.62166,1.73426 0,0.75275 -0.23472,1.51676 -0.70383,2.29133 -0.46911,0.76367 -1.19424,1.55426 -2.17609,2.37247 -1.04731,0.88367 -2.08951,1.51676 -3.12591,1.89859 -1.0364,0.38183 -2.18189,0.57258 -3.43649,0.57258 -1.21095,0 -2.16518,-0.23984 -2.863385,-0.71986 -0.687298,-0.48001 -1.030947,-1.13458 -1.030947,-1.9637 0,-0.58911 0.229101,-1.18385 0.687298,-1.78387 0.458198,-0.61093 1.025324,-1.10748 1.701704,-1.48932 0.6873,-0.38183 1.35823,-0.57257 2.0128,-0.57257 0.49093,0 0.73639,0.10892 0.73639,0.32711 0,0.1091 -0.0711,0.2891 -0.21291,0.54002 -0.42546,0.76366 -0.6382,1.46732 -0.6382,2.11098 0,0.4582 0.16927,0.89492 0.50746,1.30948 0.64366,-0.0327 1.22715,-0.34365 1.7508,-0.93276 0.53456,-0.60002 0.80202,-1.24948 0.80202,-1.94768 0,-0.48002 -0.15802,-0.86151 -0.47439,-1.14515 -0.3382,-0.3382 -1.09657,-0.6711 -2.2748,-0.99839 -1.73461,-0.50183 -2.86374,-1.06385 -3.387391,-1.68569 -0.490926,-0.50183 -0.736391,-1.10168 -0.736391,-1.79988 0,-1.25459 0.452573,-2.50901 1.358062,-3.7636 0.91639,-1.25459 2.08388,-2.28042 3.50211,-3.07682 1.41823,-0.80729 2.84754,-1.21077 4.28759,-1.21077 z m -44.625182,0.31109 c 1.134586,0 1.701705,0.73639 1.701705,2.20917 0,1.08003 -0.223473,2.62338 -0.670759,4.63072 l 0.06511,0.0656 0.981852,-1.14567 c 0.992762,-1.10185 1.778244,-1.92006 2.356446,-2.45463 0.58911,-0.54547 1.112766,-0.93821 1.570963,-1.17822 0.469107,-0.24001 0.943668,-0.35967 1.423686,-0.35967 0.774571,0 1.320218,0.20711 1.636591,0.62167 0.316375,0.41456 0.47439,1.13458 0.47439,2.16007 0,0.42548 -0.04347,1.05294 -0.130741,1.88206 -0.130913,1.10186 -0.196371,2.13791 -0.196371,3.10885 0,1.09095 0.05472,1.97462 0.163814,2.651 0.07637,0.41457 0.190918,0.8293 0.343648,1.24386 0.109096,0.39274 0.163299,0.66019 0.163299,0.80202 0,0.17455 -0.06546,0.31057 -0.196371,0.40876 -0.338193,0.29455 -0.785136,0.55127 -1.34152,0.76946 -0.556382,0.21819 -1.025834,0.32711 -1.407665,0.32711 -0.62184,0 -1.188961,-0.21274 -1.701705,-0.6382 -0.501835,-0.42547 -0.894577,-1.01458 -1.178224,-1.76734 -0.272735,-0.75275 -0.409276,-1.60369 -0.409276,-2.55281 0,-0.63275 0.06546,-1.37988 0.196371,-2.24173 l -0.06511,-0.0656 c -0.469106,0.52366 -0.851111,0.93839 -1.145667,1.24385 -0.283646,0.30547 -0.5511,0.5944 -0.802018,0.86714 -1.221859,1.39641 -2.257914,2.65645 -3.108854,3.78013 -0.327284,0.43638 -0.627465,0.81838 -0.900203,1.14566 -0.403651,0.40365 -0.861848,0.60514 -1.374592,0.60514 -0.698206,0 -1.265327,-0.26183 -1.701705,-0.78549 -0.43638,-0.52365 -0.65474,-1.19969 -0.65474,-2.02881 0,-0.51275 0.05983,-1.14022 0.179832,-1.88206 0.120004,-0.74184 0.278537,-1.53295 0.474908,-2.37298 0.20728,-0.85094 0.447114,-1.72335 0.719852,-2.61793 0.283647,-0.89457 0.588939,-1.74551 0.916223,-2.55281 0.501835,-1.34187 1.112938,-2.38918 1.832962,-3.14193 0.490926,-0.49093 1.085665,-0.73639 1.783871,-0.73639 z m 31.189826,0 c 0.632751,0 1.140042,0.28893 1.521873,0.86713 0.39274,0.5782 0.589111,1.33658 0.589111,2.2748 0,1.3855 -0.20148,3.01067 -0.605131,4.87618 -0.39274,1.85461 -0.949124,3.78559 -1.669148,5.79293 -0.283647,0.8073 -0.632923,1.35295 -1.047483,1.6366 -0.283646,0.17455 -0.616556,0.26199 -0.998387,0.26199 h -0.03256 c -0.490926,-0.0327 -0.938387,-0.25671 -1.342038,-0.67127 -0.403651,-0.43638 -0.692578,-0.90532 -0.867129,-1.40715 -0.163642,-0.51275 -0.245465,-1.17294 -0.245465,-1.98024 0,-1.80007 0.332912,-3.82923 0.99839,-6.08749 0.676388,-2.26917 1.439878,-3.9107 2.290815,-4.92528 0.338196,-0.42547 0.80713,-0.6382 1.407149,-0.6382 z"
       id="path16"
       inkscape:connector-curvature="0" />
  </g>
  <g
     inkscape:groupmode="layer"
     id="layer2"
     inkscape:label="Main"
     transform="translate(0,-149)" />
</svg>
